<?xml version="1.0" standalone="no"?>
<!DOCTYPE svg PUBLIC "-//W3C//DTD SVG 20010904//EN"
 "http://www.w3.org/TR/2001/REC-SVG-20010904/DTD/svg10.dtd">
<svg version="1.0" xmlns="http://www.w3.org/2000/svg"
 width="499.000000pt" height="499.000000pt" viewBox="0 0 499.000000 499.000000"
 preserveAspectRatio="xMidYMid meet">
<metadata>
Created by potrace 1.14, written by Peter Selinger 2001-2017
</metadata>
<g transform="translate(0.000000,499.000000) scale(0.100000,-0.100000)"
fill="#000000" stroke="none">
<path d="M2189 4926 c-3 -3 -23 -8 -44 -11 -66 -9 -99 -15 -125 -20 -14 -3
-36 -7 -50 -10 -14 -3 -56 -14 -95 -26 -38 -11 -78 -20 -87 -20 -10 0 -20 -4
-23 -10 -4 -5 -17 -9 -30 -9 -13 0 -27 -4 -30 -10 -3 -5 -16 -10 -29 -10 -12
0 -26 -4 -32 -8 -5 -5 -36 -20 -69 -33 -33 -13 -95 -40 -138 -61 -43 -21 -82
-38 -87 -38 -6 0 -10 -3 -10 -8 0 -4 -17 -15 -37 -25 -55 -25 -207 -124 -288
-187 -38 -30 -79 -62 -89 -70 -31 -24 -259 -251 -296 -296 -19 -23 -46 -56
-60 -74 -14 -18 -33 -42 -43 -53 -9 -11 -17 -24 -17 -28 0 -4 -6 -14 -13 -21
-24 -25 -104 -154 -148 -238 -24 -47 -46 -87 -49 -90 -7 -7 -18 -32 -74 -162
-7 -18 -19 -49 -26 -68 -7 -19 -16 -44 -20 -55 -10 -26 -44 -139 -42 -142 1
-2 -5 -21 -13 -43 -8 -22 -12 -40 -10 -40 3 0 0 -11 -5 -26 -11 -29 -18 -65
-22 -111 -1 -18 -5 -33 -8 -33 -3 0 -7 -19 -10 -43 -7 -64 -4 -666 3 -712 18
-108 26 -152 32 -176 3 -14 8 -32 9 -40 2 -8 5 -21 9 -29 7 -19 31 -113 32
-122 0 -3 3 -10 7 -14 5 -4 8 -17 8 -29 0 -11 4 -25 8 -30 5 -6 15 -30 22 -55
8 -25 20 -54 26 -65 7 -11 12 -22 11 -25 0 -3 20 -49 46 -102 26 -54 47 -102
47 -107 0 -5 3 -11 8 -13 4 -1 18 -23 31 -48 29 -54 141 -226 167 -257 11 -12
28 -34 39 -49 38 -53 81 -99 195 -214 112 -112 128 -127 220 -201 88 -71 268
-185 386 -244 65 -33 121 -63 122 -67 2 -5 11 -8 21 -8 9 0 34 -9 56 -20 22
-11 45 -20 52 -20 7 0 22 -4 33 -10 11 -5 29 -15 40 -20 11 -6 28 -10 38 -10
10 0 22 -3 26 -7 4 -4 19 -9 34 -11 15 -2 30 -9 34 -15 4 -7 8 -9 8 -5 0 4 20
1 45 -6 25 -8 45 -12 45 -10 0 2 12 -1 27 -7 24 -9 63 -16 188 -36 57 -9 651
-9 705 -1 61 10 96 17 157 29 29 6 55 10 58 11 2 0 54 15 114 33 61 18 112 30
115 27 4 -3 6 0 6 6 0 7 6 12 14 12 65 0 599 279 614 321 2 5 8 9 14 9 5 0 15
6 22 12 7 7 31 27 52 43 58 46 105 86 147 128 21 20 41 37 45 38 6 0 128 134
179 196 163 197 267 371 388 648 7 17 19 48 26 70 7 22 17 44 21 49 4 6 8 20
8 31 0 12 3 25 8 29 4 4 7 11 7 14 0 7 14 56 36 128 5 17 9 40 9 52 0 12 4 22
8 22 4 0 8 15 9 33 1 33 5 61 20 132 8 42 9 641 1 710 -3 22 -8 47 -11 55 -4
8 -8 33 -11 55 -4 33 -26 124 -72 295 -4 14 -10 30 -14 35 -3 6 -12 30 -20 55
-7 25 -17 49 -22 55 -4 5 -8 17 -8 27 0 10 -4 18 -10 18 -5 0 -10 6 -10 13 0
7 -9 32 -20 55 -11 22 -20 45 -20 51 0 5 -3 11 -7 13 -5 2 -19 26 -33 53 -34
70 -121 217 -137 233 -7 8 -18 23 -25 35 -10 20 -56 81 -83 113 -5 6 -26 31
-45 55 -49 62 -255 267 -315 315 -27 21 -57 46 -65 54 -8 8 -23 20 -31 25 -9
6 -62 40 -117 77 -108 73 -359 208 -385 208 -10 0 -17 5 -17 10 0 6 -8 10 -18
10 -10 0 -22 4 -27 8 -6 5 -30 15 -55 22 -25 8 -49 17 -55 20 -9 7 -67 23 -73
21 -1 -1 -18 5 -37 13 -19 8 -35 13 -35 11 0 -1 -20 3 -45 11 -25 7 -45 11
-45 8 0 -3 -8 0 -19 5 -10 6 -36 13 -57 16 -44 6 -79 13 -79 15 0 11 -705 27
-716 16z"/>
</g>
</svg>
